<?xml version="1.0" standalone="no"?>
<!DOCTYPE svg PUBLIC "-//W3C//DTD SVG 20010904//EN"
 "http://www.w3.org/TR/2001/REC-SVG-20010904/DTD/svg10.dtd">
<svg version="1.0" xmlns="http://www.w3.org/2000/svg"
 width="1080.000000pt" height="1080.000000pt" viewBox="0 0 1080.000000 1080.000000"
 preserveAspectRatio="xMidYMid meet">
<metadata>
Created by potrace 1.14, written by Peter Selinger 2001-2017
</metadata>
<g transform="translate(0.000000,1080.000000) scale(0.100000,-0.100000)"
fill="#000000" stroke="none">
<path d="M5345 8539 c-328 -31 -625 -117 -891 -258 -194 -102 -258 -144 -404
-264 -122 -101 -330 -318 -330 -345 0 -9 -22 -37 -49 -63 -27 -26 -54 -63 -60
-82 -7 -19 -18 -38 -26 -40 -11 -5 -104 -160 -141 -237 -138 -286 -219 -601
-240 -933 l-7 -108 -41 -47 c-146 -166 -221 -292 -263 -442 -27 -99 -23 -318
7 -425 56 -200 178 -372 355 -499 141 -102 286 -146 590 -181 128 -15 161 -67
260 -415 33 -114 53 -183 105 -355 10 -33 27 -91 39 -130 157 -535 174 -581
273 -743 53 -87 153 -207 219 -263 29 -24 57 -49 63 -55 6 -5 39 -29 74 -53
109 -74 252 -139 378 -172 111 -30 131 -32 294 -33 160 0 185 2 285 27 183 47
376 148 509 268 99 90 112 103 190 208 94 127 159 258 197 397 24 90 82 284
136 454 20 63 42 135 49 160 7 25 28 98 48 164 20 65 34 122 31 126 -3 5 -1
10 3 12 5 1 21 44 36 93 32 107 72 208 100 253 25 39 42 44 246 72 211 29 332
69 467 156 121 77 257 236 320 374 54 118 68 187 68 350 0 179 -12 238 -74
365 -54 109 -107 188 -178 265 l-60 65 -7 105 c-23 342 -102 638 -247 935 -79
161 -124 233 -243 389 -323 427 -805 738 -1318 851 -230 51 -554 74 -763 54z
m550 -384 c349 -63 641 -192 903 -396 115 -90 340 -325 388 -405 11 -18 42
-69 71 -116 90 -146 150 -286 216 -503 19 -61 43 -197 52 -287 l7 -68 -118 0
c-112 0 -119 1 -163 29 -102 65 -177 62 -251 -8 l-40 -38 0 -720 0 -720 -53
-65 c-113 -138 -177 -258 -220 -415 -14 -48 -51 -173 -82 -278 -31 -104 -64
-215 -72 -245 -8 -30 -31 -107 -50 -170 -19 -63 -37 -124 -40 -135 -26 -104
-102 -322 -134 -383 -79 -156 -234 -307 -394 -386 -135 -67 -195 -80 -365 -81
-125 0 -155 3 -220 23 -187 59 -339 167 -460 326 -92 123 -133 225 -245 611
-35 121 -82 283 -105 360 -23 77 -57 199 -76 270 -59 220 -124 358 -233 494
-47 58 -59 91 -52 134 1 5 1 314 1 688 0 620 -2 682 -17 707 -37 59 -53 67
-128 67 -58 0 -81 -5 -139 -32 -64 -31 -75 -33 -179 -33 l-110 0 7 78 c10 112
49 282 91 402 20 58 39 123 40 145 4 45 29 111 51 133 8 8 13 21 10 28 -3 8 1
14 10 14 13 0 24 18 37 60 2 8 4 17 4 20 -2 20 121 189 138 190 15 0 47 39 40
49 -3 5 2 11 10 15 8 3 15 9 15 14 0 5 25 34 55 64 30 30 55 54 55 52 0 -1 28
27 63 63 89 93 294 247 323 242 4 0 10 3 13 8 6 10 135 73 161 79 8 1 47 14
86 28 39 13 93 26 120 29 27 2 74 11 104 19 85 24 148 36 235 48 44 5 94 12
110 14 72 10 444 -3 530 -19z m-2087 -2640 c1 -280 -1 -512 -6 -517 -11 -11
-124 9 -205 37 -127 45 -210 106 -273 201 -60 91 -78 153 -78 284 l-1 115 41
85 c26 53 60 103 90 134 61 61 182 132 248 145 107 22 152 29 166 27 13 -1 15
-66 18 -511z m3711 476 c70 -26 130 -63 201 -122 48 -40 67 -65 99 -132 56
-115 70 -200 49 -304 -31 -159 -119 -284 -245 -351 -65 -34 -240 -92 -279 -92
l-24 0 0 516 0 517 74 -6 c41 -4 97 -15 125 -26z"/>
<path d="M6320 7342 c0 -7 -4 -11 -9 -8 -5 3 -12 -1 -15 -10 -3 -8 -10 -12
-16 -9 -5 3 -10 1 -10 -5 0 -6 -8 -14 -17 -17 -10 -4 -29 -17 -42 -29 -14 -13
-29 -20 -34 -17 -6 4 -8 -3 -5 -15 4 -12 3 -20 0 -18 -10 6 -32 -21 -24 -28 3
-4 -4 -9 -16 -13 -12 -3 -19 -10 -15 -16 3 -5 -2 -16 -12 -24 -11 -7 -16 -13
-12 -13 3 0 -2 -24 -13 -54 -10 -30 -16 -57 -13 -60 3 -3 1 -11 -5 -18 -14
-18 -8 -188 8 -198 9 -5 9 -9 1 -14 -8 -5 -8 -13 1 -29 7 -12 11 -25 10 -29
-1 -5 2 -8 8 -8 5 0 7 -7 4 -15 -4 -8 -1 -15 5 -15 6 0 10 -3 9 -7 -3 -15 22
-63 32 -63 5 0 10 -6 10 -13 0 -8 9 -22 20 -32 11 -10 20 -24 20 -32 0 -7 7
-16 16 -20 26 -10 34 -48 23 -113 -6 -33 -15 -60 -19 -60 -5 0 -7 -8 -5 -17 1
-10 -4 -29 -12 -42 -8 -13 -11 -21 -5 -17 6 3 8 -1 5 -12 -4 -19 -43 -28 -43
-11 0 6 -7 17 -15 25 -8 9 -15 13 -15 9 0 -3 -18 13 -40 35 -22 23 -45 38 -50
35 -6 -3 -10 1 -10 10 0 9 -4 13 -10 10 -5 -3 -22 1 -38 9 -27 14 -31 14 -51
-5 -11 -11 -21 -26 -21 -34 0 -8 -9 -20 -19 -27 -10 -6 -17 -17 -15 -23 3 -6
-4 -20 -15 -32 -11 -11 -17 -23 -14 -27 3 -3 3 -11 1 -18 -3 -7 -6 -17 -6 -22
0 -5 -7 -13 -16 -18 -9 -5 -14 -13 -11 -19 4 -5 3 -15 -2 -21 -4 -7 -8 -17 -9
-23 -1 -5 -8 -23 -15 -40 -7 -16 -11 -34 -10 -39 1 -4 -3 -14 -9 -20 -5 -7 -7
-16 -3 -19 3 -4 2 -7 -3 -7 -5 0 -10 -12 -10 -27 -1 -16 -5 -44 -9 -63 -4 -19
-8 -47 -8 -62 0 -16 -4 -28 -7 -28 -4 0 -7 -7 -8 -15 -1 -8 -3 -22 -4 -30 -1
-8 -4 -15 -8 -15 -7 0 -9 -9 -12 -55 -1 -14 -6 -25 -10 -25 -4 0 -8 -7 -8 -15
0 -24 -30 -76 -40 -70 -5 3 -11 -3 -14 -12 -3 -10 -19 -32 -35 -49 -17 -18
-28 -34 -25 -36 2 -3 -5 -22 -15 -44 l-19 -39 -12 30 c-6 17 -13 37 -17 45 -3
8 -6 25 -6 38 0 12 -3 22 -8 22 -4 0 -6 9 -4 20 2 11 0 22 -5 25 -4 3 -6 14
-3 26 3 12 1 24 -5 28 -7 4 -13 20 -16 37 -2 16 -6 36 -10 44 -3 8 -8 26 -10
40 -3 14 -5 27 -6 30 -1 3 -2 13 -1 23 1 9 -2 17 -7 17 -6 0 -8 9 -5 20 3 11
1 20 -5 20 -9 0 -19 34 -28 91 -2 15 -13 50 -24 79 -12 29 -19 59 -16 66 3 8
-1 20 -9 28 -8 8 -15 21 -15 28 0 23 -26 89 -43 108 -8 10 -13 21 -10 24 4 3
0 6 -7 6 -7 0 -11 3 -7 6 11 12 -20 32 -54 35 -22 2 -33 -1 -32 -8 2 -8 -4
-10 -14 -6 -11 4 -14 3 -9 -5 4 -7 -3 -14 -19 -18 -13 -3 -23 -9 -21 -13 2 -3
-2 -12 -10 -19 -8 -7 -14 -10 -14 -7 0 3 -16 -11 -36 -32 -20 -21 -33 -32 -30
-25 4 6 2 12 -4 12 -6 0 -8 5 -5 10 3 6 1 10 -5 10 -6 0 -10 6 -9 13 1 6 0 19
-4 27 -3 8 -8 26 -11 40 -15 73 -30 120 -39 120 -5 0 -4 7 3 15 7 8 10 22 6
30 -3 9 -2 13 4 10 5 -3 16 8 25 25 8 16 19 30 23 30 4 0 13 15 21 33 8 17 19
38 25 45 5 8 12 23 13 35 2 12 7 24 11 27 7 5 11 19 16 47 1 7 5 16 9 19 12
12 8 26 -5 18 -7 -5 -8 -3 -2 7 4 8 10 21 12 29 6 31 0 167 -8 178 -2 1 -3 10
-4 20 -1 9 -5 23 -9 30 -5 6 -5 12 -1 12 4 0 -3 12 -17 27 -13 14 -18 23 -11
19 21 -12 -12 42 -50 85 -10 10 -18 21 -18 24 0 3 0 10 0 15 0 6 -6 10 -14 10
-8 0 -29 14 -47 31 -37 34 -93 62 -126 62 -12 0 -20 4 -17 8 6 10 5 11 -60 13
-28 0 -55 -4 -62 -11 -7 -7 -20 -13 -29 -13 -8 0 -18 -6 -21 -14 -3 -8 -14
-13 -23 -11 -10 2 -24 -5 -32 -16 -7 -10 -19 -19 -26 -19 -7 0 -13 -5 -13 -11
0 -15 -26 -39 -34 -31 -4 3 -4 -2 0 -12 5 -14 4 -17 -4 -12 -7 4 -15 0 -19
-11 -3 -10 -13 -22 -20 -26 -7 -5 -11 -12 -8 -18 4 -5 1 -9 -5 -9 -6 0 -9 -4
-5 -9 3 -5 1 -12 -5 -16 -5 -3 -10 -15 -10 -26 0 -10 -4 -19 -9 -19 -7 0 -13
-17 -26 -75 -1 -5 -3 -24 -3 -41 -2 -24 -7 -31 -19 -30 -14 1 -19 -8 -21 -43
-3 -36 -1 -43 12 -38 18 7 30 -8 32 -43 1 -14 3 -26 4 -27 1 -2 3 -6 4 -10 2
-5 8 -28 16 -53 7 -25 13 -48 12 -52 -1 -5 3 -8 9 -8 5 0 8 -4 5 -9 -3 -4 1
-17 9 -27 8 -10 15 -27 15 -36 0 -10 5 -18 10 -18 6 0 9 -3 8 -7 -4 -15 24
-83 33 -83 6 0 7 -5 4 -10 -4 -6 -2 -16 3 -23 6 -7 11 -16 11 -22 4 -28 24
-92 34 -104 10 -12 9 -13 -3 -6 -8 5 -4 -4 8 -20 17 -22 20 -30 10 -37 -10 -6
-10 -8 1 -8 8 0 11 -6 7 -16 -3 -8 -2 -13 3 -10 5 3 12 -11 16 -32 4 -20 5
-37 3 -38 -1 0 2 -7 8 -15 6 -8 10 -22 9 -31 -2 -10 1 -18 5 -18 7 0 38 -77
46 -112 1 -5 3 -11 4 -15 1 -5 3 -12 4 -18 1 -5 7 -23 14 -38 7 -16 12 -34 12
-42 0 -8 4 -16 9 -20 6 -3 13 -26 17 -50 3 -25 9 -45 13 -45 6 0 11 -20 14
-62 1 -9 4 -15 7 -13 3 2 10 -8 17 -21 6 -14 7 -21 1 -18 -16 10 24 -49 52
-76 14 -13 28 -23 33 -22 4 1 7 -3 7 -8 0 -11 45 -9 56 3 4 4 18 7 31 7 12 0
23 5 23 10 0 7 6 7 18 1 13 -7 23 -6 30 1 24 24 51 16 58 -16 3 -17 9 -35 13
-41 4 -5 12 -32 18 -60 10 -44 15 -65 30 -125 2 -8 5 -24 7 -35 2 -11 8 -31
14 -45 5 -14 8 -33 6 -43 -1 -10 1 -15 5 -12 5 3 11 -10 13 -28 3 -17 9 -41
13 -51 7 -15 5 -17 -6 -11 -11 7 -12 6 -2 -6 7 -9 15 -26 17 -40 3 -13 5 -24
6 -24 2 0 5 -13 13 -55 3 -14 10 -38 17 -55 6 -16 11 -31 11 -32 -1 -2 -1 -4
0 -5 1 -2 3 -14 4 -28 5 -37 10 -54 18 -66 3 -6 8 -25 9 -43 1 -17 5 -31 9
-31 3 0 11 -25 18 -55 7 -30 16 -55 20 -55 5 0 8 -10 7 -22 -1 -13 3 -29 9
-36 27 -35 61 -62 73 -57 6 2 12 0 12 -5 0 -6 33 -10 75 -10 42 0 75 4 75 10
0 5 7 7 15 4 8 -4 15 -1 15 6 0 6 5 8 10 5 6 -3 14 5 20 19 5 14 14 26 19 26
6 0 8 7 5 15 -4 8 -1 15 5 15 6 0 11 8 11 18 0 10 5 23 10 28 6 6 13 24 16 40
3 16 11 32 17 36 7 4 8 8 3 8 -5 0 -3 6 3 13 6 8 9 16 6 19 -3 3 1 11 10 18 8
7 15 20 15 30 0 9 3 20 7 24 11 11 32 79 27 88 -3 4 -1 8 4 8 9 0 48 88 74
165 7 22 18 43 25 47 6 5 9 17 6 28 -3 12 0 20 8 20 7 0 9 3 6 7 -4 3 -1 16 6
27 8 12 17 33 21 49 3 15 11 27 17 27 6 0 8 4 5 9 -3 5 1 26 10 47 24 56 32
78 32 87 0 4 8 20 17 34 9 14 12 22 6 19 -7 -5 -9 -1 -5 8 3 9 10 16 15 16 5
0 8 3 7 8 -4 11 34 92 41 88 3 -2 7 10 8 26 3 40 9 45 35 29 14 -8 18 -9 13
-1 -4 7 4 4 18 -5 15 -9 31 -14 37 -10 5 3 10 1 10 -5 0 -7 7 -10 15 -6 8 3
15 0 15 -6 0 -6 3 -8 7 -5 3 4 13 1 21 -6 13 -10 14 -9 7 3 -8 13 -7 13 10 0
10 -8 27 -14 37 -12 11 2 25 -2 33 -8 29 -24 90 17 79 53 -3 10 0 17 7 17 7 0
10 3 7 6 -4 3 0 20 7 39 8 18 11 35 8 39 -4 3 -1 6 6 6 7 0 11 8 10 18 -1 9 0
20 1 25 1 4 4 12 5 17 1 6 4 12 5 15 1 3 3 8 4 13 1 4 4 12 8 17 6 10 27 83
34 120 10 55 16 75 22 75 4 0 8 10 9 23 3 27 8 47 17 69 4 9 5 22 1 28 -3 5
-1 10 6 10 6 0 9 8 6 20 -3 11 -1 20 4 20 5 0 9 6 9 13 0 6 6 23 13 37 7 14
14 57 15 95 2 39 5 78 8 88 3 9 0 17 -6 17 -7 0 -5 7 4 16 9 8 13 21 9 27 -4
7 1 6 10 -2 10 -8 17 -9 17 -3 0 6 -4 13 -9 16 -11 7 -9 19 9 69 8 20 18 37
23 37 5 0 4 7 -3 15 -10 12 -10 15 0 15 8 0 10 3 7 7 -4 3 -1 13 6 21 10 13 9
14 -3 7 -8 -4 -3 5 11 21 23 26 26 36 24 94 -2 36 -4 144 -6 240 -3 167 -4
175 -26 196 -12 11 -20 24 -16 27 3 4 -1 7 -10 7 -15 0 -21 11 -18 32 0 4 -6
5 -14 2 -10 -4 -15 0 -15 11 0 10 -5 13 -12 9 -7 -5 -9 -2 -5 8 4 12 1 14 -14
11 -12 -3 -21 1 -25 11 -5 13 -9 14 -20 5 -11 -9 -18 -8 -30 2 -9 7 -32 12
-51 10 -22 -2 -33 1 -29 8 4 5 -2 9 -14 8 -11 -1 -20 -5 -20 -9 0 -3 -9 -6
-20 -5 -11 1 -20 4 -20 7 0 4 -7 7 -15 7 -8 0 -15 -5 -15 -11 0 -6 -5 -4 -10
4 -7 11 -10 11 -10 2z"/>
<path d="M5465 3828 c-74 -27 -156 -105 -150 -140 3 -12 -2 -29 -11 -39 -20
-22 -24 -75 -5 -71 8 2 11 -3 8 -11 -3 -8 0 -21 6 -28 10 -11 9 -11 -5 0 -21
15 -44 5 -29 -13 6 -7 12 -27 14 -46 6 -51 31 -94 82 -136 57 -48 65 -81 34
-141 -13 -25 -29 -48 -37 -50 -21 -9 -60 17 -70 46 -21 60 -100 63 -134 5 -15
-27 -15 -32 4 -82 24 -63 72 -99 159 -117 87 -18 134 0 180 70 l35 55 24 -42
c35 -64 61 -79 130 -79 52 1 86 10 136 38 35 20 51 37 69 77 16 34 20 56 14
67 -4 9 -6 19 -3 22 12 12 -49 46 -77 42 -29 -4 -43 -15 -82 -70 -10 -14 -26
-25 -36 -25 -21 0 -59 57 -68 101 -4 23 0 30 26 43 52 27 101 77 129 130 21
42 26 64 26 126 0 85 -15 128 -64 184 -56 63 -111 89 -199 93 -42 1 -89 -2
-106 -9z"/>
</g>
</svg>
